<svg xmlns="http://www.w3.org/2000/svg" viewBox="0 0 520 160" role="img" aria-labelledby="title">
  <title id="title">Zoom logo</title>
  <rect width="520" height="160" fill="none"/>
  <g transform="translate(18 22)">
    <circle cx="58" cy="58" r="58" fill="#2D8CFF"/>
    <path fill="#fff" d="M29 41c0-5 4-9 9-9h35c10 0 18 8 18 18v25c0 5-4 9-9 9H38c-5 0-9-4-9-9V41z"/>
    <path fill="#fff" d="m94 51 22-15c4-3 9 0 9 5v51c0 5-5 8-9 5L94 82V51z"/>
  </g>
  <g fill="#2D8CFF" transform="translate(160 49)">
    <path d="M5 61V49l48-38H8V0h66v12L26 50h49v11H5z"/>
    <path d="M116 62c-21 0-37-14-37-31S95 0 116 0s37 14 37 31-16 31-37 31zm0-11c13 0 23-9 23-20s-10-20-23-20-23 9-23 20 10 20 23 20z"/>
    <path d="M195 62c-21 0-37-14-37-31S174 0 195 0s37 14 37 31-16 31-37 31zm0-11c13 0 23-9 23-20s-10-20-23-20-23 9-23 20 10 20 23 20z"/>
    <path d="M243 61V1h13v8c5-6 12-9 21-9 10 0 18 4 22 12 5-8 14-12 24-12 15 0 25 10 25 27v34h-13V29c0-12-6-18-16-18-11 0-18 8-18 20v30h-13V29c0-12-6-18-16-18-11 0-18 8-18 20v30h-13z"/>
  </g>
</svg>
